<svg width="845" height="823" viewBox="0 0 845 823" fill="none" xmlns="http://www.w3.org/2000/svg">
<path d="M196.168 201.2C199.71 200.941 203.265 200.941 206.807 201.199C260.557 204.904 349.391 262.056 393.205 293.226C441.191 327.393 486.681 364.929 529.332 405.55C537.339 413.071 545.204 420.743 552.922 428.559C556.541 432.217 561.053 436.658 564.409 440.507C565.514 445.912 564.1 457.754 563.028 463.361C559.001 485.529 548.381 505.972 532.558 522.026C529.283 525.355 524.114 530.117 520.255 532.742C508.19 542.735 486.019 551.883 470.458 553.549C468.357 552.475 464.94 550 462.911 548.603C458.355 545.47 453.829 542.296 449.328 539.083C430.149 525.358 411.358 511.097 392.982 496.313C341.041 454.869 292.786 409.016 248.757 359.266C228.764 336.24 209.351 311.732 193.584 285.545C183.995 269.009 173.993 250.956 171.638 231.688C169.435 213.661 178.346 202.969 196.168 201.2ZM193.657 223.967C193.071 234.789 196.85 244.706 201.593 254.272C220.049 291.494 247.462 325.104 275.12 355.88C316.769 401.471 362.013 443.652 410.416 482.014C430.741 498.262 453.603 515.809 475.225 530.38C489.93 526.834 503.42 519.087 514.471 508.836C527.363 495.877 535.515 483.279 540.085 465.137C541.438 459.767 541.857 455.083 542.582 449.707C540.331 446.764 532.283 439.095 529.398 436.248C518.66 425.58 507.675 415.165 496.451 405.01C450.675 363.017 401.688 324.655 349.938 290.275C324.428 273.265 297.808 257.981 270.255 244.522C254.624 237.067 217.233 221.15 200.223 222.87C197.472 223.021 196.265 222.997 193.657 223.967Z" fill="white"/>
<path d="M475.734 527.356C464.845 520.467 450.123 509.281 439.754 501.499C386.92 461.77 337.44 417.776 291.812 369.961C270.533 347.401 249.903 323.614 231.763 298.423C220.683 283.037 209.778 266.085 202.176 248.715C200.165 244.12 194.873 230.574 196.589 226.382C198.536 224.965 204.552 225.802 207.115 226.001C211.898 226.373 218.277 227.95 222.942 229.136C226.633 229.962 231.271 231.599 234.844 232.793C246.081 236.547 257.143 241.324 267.855 246.407C296.03 259.777 323.338 275.98 349.376 293.094C403.603 329.227 454.791 369.718 502.429 414.164C511.15 422.246 519.741 430.47 528.196 438.832C530.69 441.278 537.876 448.165 539.605 450.645C539.761 461.418 533.838 477.669 528.395 487.102C516.908 506.991 497.954 521.478 475.734 527.356ZM309.498 321.739C309.522 326.504 309.426 332.825 310.066 337.443C315.006 373.076 339.519 408.898 364.756 433.849C398.535 467.242 448.99 498.095 497.954 498.707C499.428 498.724 503.761 498.548 505.302 498.366C509.612 498.121 512.462 497.416 516.613 496.536C516.807 490.593 516.729 484.394 515.777 478.489C510.58 446.236 489.854 414.834 468.091 391.331C435.956 356.632 381.546 321.265 332.829 319.754C328.877 319.66 324.924 319.693 320.974 319.854C316.667 320.319 313.788 320.864 309.498 321.739Z" fill="white"/>
<path d="M402.547 347.002C403.268 346.927 404.828 346.806 405.437 347.079C411.1 349.619 418.687 354.825 423.668 358.4C430.351 363.188 436.849 368.232 443.145 373.521C452.528 381.379 461.379 389.851 469.64 398.88C472.568 402.104 476.237 405.272 476.43 409.857C476.997 423.48 473.352 437.383 465.093 448.361C454.583 462.325 440.957 468.657 424.087 471.164C423.263 471.343 421.766 471.415 420.87 471.487C415.273 468.79 405.113 461.748 399.841 457.913C394.283 453.882 388.863 449.663 383.59 445.269C374.679 437.767 366.224 429.743 358.267 421.24C355.827 418.633 350.45 413.517 350.188 410.018C347.653 376.205 369.63 351.266 402.547 347.002Z" fill="white"/>
<path d="M482.012 417.503C482.151 417.601 482.351 417.735 482.446 417.861C497.041 437.388 511.653 467.329 511.546 491.944C508.843 492.282 506.085 492.649 503.377 492.88C491.502 493.882 479.37 491.557 467.863 488.927C456.607 486.239 442.604 480.839 432.377 475.457C440.379 473.773 447.039 470.903 453.855 466.405C466.27 458.17 475.315 445.756 479.344 431.423C480.726 426.402 480.989 422.425 482.012 417.503Z" fill="white"/>
<path d="M322.427 325.348C343.224 323.785 375.728 332.353 393.609 342.75C377.34 346.551 364.335 355.575 354.885 369.274C347.934 379.864 345.666 389.086 344.281 401.344C329.97 381.045 314.286 352.068 314.912 326.464C317.421 326 319.902 325.686 322.427 325.348Z" fill="white"/>
<path d="M619.895 504.375C620.858 504.909 625.841 511.683 626.735 512.899C641.54 533.062 655.476 553.583 665.197 576.397C684.966 622.782 663.894 640.794 617.817 628.707C613.415 627.552 608.255 626.454 603.849 624.63C587.225 619.836 557.692 605.959 542.34 597.311C545.699 595.634 549.665 594.274 553.099 592.766C585.245 578.664 609.949 549.056 617.655 514.79C618.317 511.839 618.84 507.655 619.733 504.872L619.895 504.375Z" fill="white"/>
<path d="M353.189 470.646C354.481 471.123 360.632 476.728 362.104 477.998C360.858 480.412 357.056 484.665 355.178 486.88L344.329 499.651C331.819 514.395 319.288 529.594 306.607 544.15C307.609 557.352 309.252 571.512 310.54 584.823C309.063 587.488 298.709 599.177 296.082 602.31L275.871 626.302C272.153 630.696 267.433 636.555 263.468 640.603C260.025 641.036 255.518 641.695 252.148 641.562C250.16 640.433 238.777 630.578 236.33 628.505L221.206 615.797C217.995 613.094 213.98 609.872 211.093 606.944C210.318 604.016 210.127 598.065 209.931 594.9C211.495 592.365 215.621 587.653 217.681 585.233L230.207 570.536C238.247 561.091 246.098 551.34 254.295 542.019C255.117 541.084 256.023 540.347 257.06 539.654C269.877 538.493 283.67 537.971 296.484 536.674C298.058 536.513 306.838 525.234 308.682 523.043L337.962 488.583C342.783 482.915 348.16 475.997 353.189 470.646ZM224.058 606.667C225.812 605.477 269.588 553.849 271.644 550.28C271.961 547.933 270.206 546.919 268.095 546.968C265.845 548.963 263.166 552.376 261.159 554.756L250.355 567.582C240.901 578.782 231.397 589.94 221.981 601.172C219.561 604.056 220.342 607.065 224.058 606.667Z" fill="white"/>
<path d="M570.515 177.259C575.865 176.433 577.77 179.582 581.69 182.894L593.397 192.786L607.179 204.417C609.871 206.687 613.117 209.244 615.522 211.707C616.085 215.133 616.614 219.797 616.533 223.244C607.951 234.324 596.311 247.33 587.13 258.182L576.073 271.286C574.235 273.462 571.63 276.75 569.601 278.629C565.56 279.179 561.554 279.16 557.518 279.557C547.959 280.498 538.148 280.54 528.635 281.757C526.898 283.444 524.551 286.415 522.906 288.379L513.061 300.131C504.981 309.747 496.188 319.682 488.349 329.399C485.039 333.218 481.767 337.071 478.535 340.956C476.83 342.992 474.612 345.845 472.722 347.613L463.891 340.3C465.273 337.725 469.114 333.362 471.089 331.04L481.596 318.679C488.935 309.861 496.333 301.093 503.793 292.378C508.809 286.431 514.497 279.491 519.799 273.821C518.81 267.774 518.333 260.301 517.683 254.103C516.986 247.437 516.029 239.955 515.908 233.352C517.709 229.874 528.063 218.369 531.11 214.695C540.325 203.587 550.006 192.462 559.267 181.366C563.031 176.857 564.531 177.666 570.515 177.259ZM557.588 270.742C559.34 269.476 570.087 256.261 572.243 253.73C582.439 241.716 592.622 229.686 602.817 217.671C603.459 216.914 605.162 214.96 605.24 214.034C605.419 211.844 603.526 211.016 601.731 210.899C599.869 212.414 594.513 219.045 592.697 221.199L574.281 242.985L560.215 259.606C558.036 262.195 549.324 270.377 557.588 270.742Z" fill="white"/>
<path d="M567.537 444.324C569.494 445.332 581.398 458.106 582.508 460.234C583.314 479.58 574.957 503.581 564.352 519.656C550.243 541.436 528.826 557.481 503.946 564.914C500.749 565.858 493.69 569.008 491.046 567.256C485.472 563.62 479.402 560.106 474.251 555.896C478.382 555.215 482.605 554.077 486.591 552.861C528.219 540.18 560.374 503.258 566.254 460.081C567.014 454.517 567.213 449.923 567.537 444.324Z" fill="white"/>
<path d="M585.566 463.645C587.237 464.479 598.236 477.571 600.305 479.97C600.115 489.389 597.088 501.647 594.047 510.531C582.092 545.487 551.179 573.862 514.879 581.812L512.321 580.544C506.8 577.053 501.03 573.66 495.616 570.048C510.849 567.334 528.953 558.287 541.056 548.741C561.216 533.129 575.556 511.219 581.785 486.513C583.523 479.566 584.713 470.837 585.566 463.645Z" fill="white"/>
<path d="M602.595 483.25C603.927 483.773 615.84 498.684 617.467 500.905C617.224 511.429 610.83 530.007 605.887 539.374C590.824 567.923 569.009 585.389 538.807 595.325C537.758 594.944 536.969 594.56 535.969 594.08C530.384 590.979 523.953 587.497 518.706 583.983C533.732 578.768 543.013 575.592 556.275 565.694C577.788 549.928 593.111 527.152 599.6 501.3C601.421 493.908 601.557 490.388 602.595 483.25Z" fill="white"/>
</svg>
