<svg width="845" height="823" viewBox="0 0 845 823" fill="none" xmlns="http://www.w3.org/2000/svg">
<path d="M421.342 179.721C428.663 179.613 432.78 185.203 437.535 189.962L450.774 203.267C452.291 204.792 454.292 207.377 456.378 208.023C462.747 209.994 488.262 197.403 498.013 199.663C500.992 200.354 503.651 201.952 505.461 204.439C508.603 208.757 509.342 214.883 510.661 219.969C511.663 223.833 512.74 227.673 513.686 231.552C514.68 235.634 515.365 239.627 517.618 243.249C519.234 244.113 523.603 245.219 525.475 245.723L542.487 250.408C545.368 251.186 550.74 252.407 553.177 253.585C555.155 254.535 556.866 255.964 558.149 257.743C562.097 263.223 559.612 269.493 557.993 275.313L553.55 291.098C552.617 294.418 551.384 298.397 550.858 301.748C550.881 301.811 550.901 301.873 550.924 301.937L551.039 302.249C552.456 306.153 555.851 308.813 558.824 311.735L569.782 322.581C572.876 325.649 578.079 330.073 578.994 334.292C580.907 343.844 572.743 349.471 566.985 355.464C562.202 360.442 556.28 365.477 551.985 370.755C549.776 373.472 552.463 379.813 553.309 383.044C555.145 390.031 557.444 397.381 559.333 404.396C561.414 410.701 558.633 419.843 551.637 422.024C540.835 425.397 528.167 428.508 517.073 431.01C514.425 433.789 514.064 437.425 513.19 441.075L509.5 456.32C508.726 459.553 508.115 462.993 506.91 466.086C506.302 467.651 505.445 469.178 504.359 470.46C497.596 478.435 486.697 474.109 478.386 471.735C473.935 470.463 469.449 469.301 465.009 467.991C462.634 467.291 459.308 465.876 456.816 466.27C452.183 467.002 434.731 489.102 427.968 492.874C425.865 494.049 423.985 494.314 421.632 494.526C415.003 494.205 412.263 490.632 407.916 486.232L396.199 474.439C392.879 471.106 390.032 467.564 385.637 465.721C379.985 467.881 373.297 469.173 367.404 470.769C362.311 471.883 357.013 473.829 351.913 474.753C338.464 477.192 335.825 465.217 333.428 455.11C332.332 450.49 330.821 446.157 329.734 441.583C328.819 437.734 328.209 433.993 325.751 430.921C318.041 428.138 309.852 426.393 301.921 424.327C298.835 423.526 295.595 422.854 292.618 421.707C291.038 421.1 289.449 420.287 288.11 419.246C285.41 417.146 283.85 414.304 283.484 410.915C282.805 404.621 288.731 387.022 290.688 380.142C291.369 377.753 292.627 374.534 292.317 372.051C291.848 368.298 269.833 349.621 266.148 344.187C264.888 342.362 264.091 340.258 263.827 338.057C263.511 335.418 264.035 332.745 265.323 330.419C267.302 326.847 271.755 323.089 274.782 320.243C278.951 316.417 282.88 312.375 287 308.491C288.582 306.903 291.968 304.165 292.147 301.774C292.417 298.141 291.068 293.776 290.144 290.264C288.795 284.99 287.406 279.727 285.977 274.474C284.218 267.926 280.825 259.656 287.086 254.396C288.146 253.513 289.341 252.808 290.627 252.307C292.632 251.536 297.42 250.358 299.697 249.732L318.188 244.674C320.811 243.951 324.218 243.39 326.469 241.837C327.213 241.324 327.682 240.8 328.074 239.984C328.973 238.11 329.395 235.41 329.948 233.375C331.733 226.808 336.135 207.069 339.611 202.767C341.816 200.038 345.079 198.592 348.569 198.465C353.414 198.288 372.055 204.282 378.128 206.001C380.9 206.786 384.177 208.085 387.084 207.657C388.024 207.519 388.806 207.155 389.567 206.595C391.477 205.192 393.18 203.144 394.848 201.45L405.944 190.308C410.717 185.524 414.254 180.42 421.342 179.721ZM423.53 441.432C481.045 440.51 526.942 393.231 526.091 335.782C525.239 278.333 477.959 232.431 420.442 233.212C362.825 233.994 316.772 281.318 317.626 338.867C318.48 396.415 365.916 442.357 423.53 441.432Z" fill="white"/>
<path d="M420.051 252.62C466.879 251.708 505.594 288.86 506.555 335.631C507.514 382.403 470.358 421.11 423.532 422.116C376.64 423.125 337.822 385.946 336.86 339.108C335.898 292.27 373.158 253.534 420.051 252.62ZM370.724 331.901C372.262 334.113 374.452 337.176 376.287 339.133C381.792 346.419 387.385 353.64 393.062 360.794C395.628 364.081 398.196 367.743 401.103 370.698C402.705 372.326 405.147 372.137 406.849 370.721C411.005 367.267 414.824 363.529 418.803 359.9L438.763 341.798L458.387 323.959C462.335 320.407 466.407 316.99 470.169 313.226C472.093 311.301 473.474 309.015 471.206 306.678C469.692 305.118 468.157 303.866 465.98 303.435C462.597 304.551 451.145 315.908 447.959 318.814L414.809 349.263C412.945 350.98 406.319 357.608 404.446 358.293C401.523 356.823 386.363 334.536 382.947 331.417C380.841 329.494 378.578 323.629 374.002 324.994C370.615 326.004 370.424 328.968 370.724 331.901Z" fill="white"/>
<path d="M320.718 449.964C321.492 450.646 321.534 452.043 321.939 453.097C325.952 463.481 326.064 475.003 336.395 481.635C346.25 487.963 354.295 485.248 364.662 482.718C371.071 481.152 377.714 479.298 384.139 478.004C386.092 479.444 391.226 484.651 392.915 486.589C391.99 491.339 390.116 497.56 388.789 502.3C387.282 507.8 385.807 513.309 384.363 518.827L368.711 577.139L358.116 616.673C356.347 623.422 353.782 634.439 351.499 640.93C348.569 638.221 341.366 625.986 338.504 621.76C337.161 619.474 335.658 617.109 334.201 614.898C330.904 609.895 327.932 604.606 324.288 599.859C323.032 598.222 320.208 597.012 318.332 598.018C314.762 599.936 311.418 602.415 308.07 604.683L282.355 622.038C279.217 624.127 275.9 626.384 272.757 628.507C272.259 628.841 271.978 628.81 271.53 628.657C271.587 626.525 275.342 613.621 276.165 610.631L288.477 566.119L310.431 486.252L316.81 462.97C317.864 459.152 319.232 453.394 320.718 449.964Z" fill="white"/>
<path d="M522.118 447.648C522.954 448.256 526.896 463.187 527.571 465.618L536.883 499.573L567.415 610.432C569.033 616.303 570.527 622.802 572.242 628.515C567.944 626.26 561.225 621.316 557.094 618.422L537.555 604.842C523.371 594.788 523.775 591.746 514.133 607.303C511.229 612.069 508.25 616.788 505.195 621.459C503.735 624.209 500.762 628.492 499.067 631.229C497.76 633.344 494.26 639.013 492.724 640.634C488.226 626.313 484.035 609.063 480.144 594.445L461.293 524.515C458.151 512.765 454.698 498.206 451.032 486.801C452.897 484.263 456.816 480.346 459.186 478.111C466.345 479.352 474.374 481.85 481.602 483.806C493.018 486.896 501.002 487.92 510.36 478.918C519.398 470.22 517.807 458.723 522.118 447.648Z" fill="white"/>
</svg>
