<svg width="845" height="823" viewBox="0 0 845 823" fill="none" xmlns="http://www.w3.org/2000/svg">
<path d="M425.881 250.442C435.956 248.932 439.329 259.304 444.141 266.138C446.599 269.633 450.676 278.17 451.332 282.424C453.14 294.115 449.645 308.262 446.85 319.536C452.281 331.048 457.482 343.054 462.728 354.687L498.656 434.428C500.843 439.24 503.036 444.049 505.105 448.912C505.115 448.931 507.755 449.727 508.048 449.804C508.8 450.003 509.601 450.333 510.337 450.588C513.554 451.922 516.604 454.367 518.721 457.102C519.828 458.531 520.12 459.5 520.591 460.967C523.1 468.783 522.279 469.073 514.651 467.719L516.384 471.964C527.401 474.233 538.81 475.552 549.81 477.478C586.454 483.895 621.492 488.844 658.81 487.085C685.007 485.85 711.847 483.864 738.099 484.071C745.19 484.127 750.969 487.518 750.103 495.709C748.202 508.253 735.445 520.733 726.03 528.463C738.67 528.818 751.509 531.057 763.884 533.554C763.306 535.454 762.57 539.244 762.082 541.323C742.901 535.849 705.078 533.986 685.144 537.189C664.66 540.48 645.324 544.459 624.125 546.541C611.812 547.862 599.475 548.943 587.117 549.782C581.851 550.137 568.73 550.646 564.244 551.485C556.994 552.841 542.725 565.494 534.09 563.557C528.621 562.331 525.978 557.639 523.131 553.383C448.593 557.859 373.802 555.424 299.715 546.111C296.445 545.263 291.338 544.645 287.852 544.053C276.053 542.127 264.214 540.455 252.344 539.04C206.73 533.397 160.772 531.011 114.819 531.903C103.807 532.134 92.9086 532.937 81.8951 533.464C81.4248 530.987 81.3612 528.388 81.2241 525.863C89.7794 524.79 104.536 524.467 113.515 524.096C112.087 519.726 111.04 515.113 109.991 510.637C108.952 506.209 103.177 482.961 105.475 479.507C106.805 477.51 110.02 476.297 112.279 475.927C116.349 475.262 120.521 475.385 124.631 475.376C134.081 475.356 143.478 475.926 152.917 476.114C177.552 476.603 202.147 477.717 226.761 478.692C242.052 479.297 257.388 479.571 272.664 480.429C282.741 481.091 292.829 481.589 302.922 481.923C309.989 482.227 318.101 482.892 325.014 481.884C325.435 457.973 328.815 428.703 344.259 409.216C347.858 404.675 352.69 401.615 357.898 399.175C356.396 394.287 354.823 389.226 353.122 384.386C352.779 383.408 351.049 382.463 351.004 381.803C350.527 374.809 353.369 365.796 357.178 360.241C361.88 353.384 368.765 350.127 376.498 348.539C382.775 347.25 393.504 347.809 398.799 351.497C405.133 355.909 409.589 363.834 412.898 370.585C413.711 372.243 415.153 374.681 415.486 376.504C415.672 377.498 415.321 377.741 414.792 378.365C413.426 379.069 410.8 379.009 409.165 379.083C409.581 382.832 409.745 388.346 409.628 392.105C419.309 382.335 429.755 372.925 439.734 363.42C444.952 358.453 446.41 355.243 452.704 351.373C450.964 347.82 449.394 343.904 447.843 340.245C446.434 344.525 445.544 348.408 444.615 352.818C437.074 357.995 428.153 364.94 420.756 370.532C418.69 368.578 417.494 366.766 415.902 364.444C421.34 359.128 431.67 353.664 436.224 347.807C439.947 343.016 438.662 338.186 444.096 332.143C442.735 329.848 440.989 325.405 439.793 322.748C434.953 321.661 421.058 319.277 418.435 314.374C412.167 302.664 406.68 289.771 401.479 277.5C398.567 270.631 407.069 264.357 411.527 260.669C415.816 257.116 420.88 251.791 425.881 250.442ZM517.824 545.928L518.632 545.69C518.384 544.24 516.806 541.387 516.129 539.93C513.211 533.658 512.293 529.657 512.393 522.864C421.825 522.385 331.347 517.13 241.334 507.122C216.552 504.69 191.808 501.901 167.106 498.759C148.604 496.412 132.356 494.396 114.101 490.642C116.051 499.957 117.287 509.311 120.15 518.474C120.678 520.166 121.184 522.065 121.453 523.807C166.132 523.402 210.789 525.961 255.13 531.469C278.723 534.361 302.005 539.021 325.685 541.573C387.489 548.235 449.806 548.057 511.867 546.241C513.84 546.183 515.858 546.08 517.824 545.928ZM400.94 478.631C413.929 477.701 483.445 475.39 490.475 481.425C491.252 482.092 491.658 482.698 491.723 483.751C491.482 484.498 491.183 485.041 490.592 485.56C480.372 494.548 351.374 497.584 329.21 497.759C315.283 497.869 301.418 497.876 287.526 496.775C284.248 496.515 275.959 496.263 273.818 493.477C273.362 492.884 273.237 492.171 273.358 491.441C273.589 490.046 274.672 489.331 275.714 488.519C270.467 488.537 264.48 488.107 259.13 487.926C245.237 487.53 231.351 486.945 217.474 486.17C203.025 485.48 188.512 485.319 174.06 484.734C167.474 484.467 160.902 484.32 154.314 484.093C148.239 483.883 141.721 483.248 135.688 483.603C131.743 483.224 120.631 483.049 116.675 483.434C118.577 483.862 120.648 484.384 122.569 484.611C123.858 485.048 127.356 485.402 128.855 485.62C148.595 488.492 168.695 491.132 188.482 493.432C249.359 500.761 310.429 506.387 371.621 510.303C418.15 513.365 467.509 515.742 514.07 514.776C515.528 509.481 517.411 504.312 519.704 499.321C516.349 491.278 512.901 483.275 509.357 475.313C499.444 478.556 489.1 475.188 480.252 475.234C461.315 475.333 442.333 476.132 423.413 473.747C416.339 472.856 410.046 470.107 403.66 467.149C402.614 470.276 401.654 475.294 400.94 478.631ZM410.245 402.133C410.423 404.408 411.449 413.418 410.591 414.949C408.073 416.104 394.636 415.167 391.341 414.776C396.061 419.985 407.405 429.499 409.322 435.588C414.163 438.729 418.58 442.037 423.306 445.221C427.995 445.308 436.362 446.172 441.168 446.744C449.229 447.635 455.54 449.353 463.278 451.395C468.265 452.712 474.37 452.673 479.499 453.447C481.751 453.743 487.316 454.315 489.385 454.085C491.64 453.833 495.532 452.552 498.151 452.048C495.652 447.806 489.365 432.773 486.948 427.411L463.879 376.353C462.721 373.752 456.808 359.825 455.615 358.537C443.491 370.951 431.075 382.773 418.411 394.647C415.765 397.13 412.985 399.773 410.245 402.133ZM563 536.703C563.969 538.922 565.083 541.199 565.578 543.555C577.21 542.545 588.719 541.94 600.32 540.96C616.707 539.526 633.066 537.768 649.387 535.685C660.841 534.231 671.669 531.266 683.003 529.548C692.672 528.083 703.913 527.801 713.689 527.95C723.744 520.313 740.45 506.851 742.217 493.788L742.245 493.585C741.695 493.218 741.994 493.3 741.313 493.369C738.377 494.018 735.521 494.857 732.599 495.493C692.136 504.309 650.68 509.37 609.56 514.056L578.31 517.346C570.569 518.085 562.965 518.618 555.251 519.723C556.946 523.544 561.109 533.516 563 536.703ZM402.181 440.265C399.105 443.192 394.01 448.226 390.796 450.774C395.759 454.366 412.228 463.422 417.995 464.683C437.479 468.944 459.751 467.543 479.582 467.587C489.08 467.608 496.02 469.3 505.714 468.424C508.525 467.878 510.914 466.205 513.393 464.722C511.523 460.691 511.179 460.342 507.656 457.611C502.984 458.593 492.819 461.92 489.062 461.862C478.829 461.633 468.506 460.655 458.493 458.469C454.997 457.723 451.769 456.067 448.214 455.55C439.366 454.262 430.725 453.911 421.849 452.97C417.841 452.545 409.771 444.874 406.022 442.734C405.053 442.181 403.161 440.489 402.181 440.265ZM385.891 380.633C387.858 388.389 388.602 398.081 390.262 406.253L390.518 406.825C393.414 407.301 399.774 407.385 402.733 407.414C401.838 400.913 401.598 387.27 401.294 380.057C401.163 379.95 401.033 379.843 400.902 379.737L400.707 379.733C396.182 380.045 390.32 380.602 385.891 380.633ZM520.093 480.644C521.98 484.589 525.462 492.341 526.765 496.372C534.125 497.867 544.657 499.351 548.899 506.029C549.741 507.352 551.144 510.402 551.845 511.935C582.48 509.161 613.056 505.821 643.564 501.914C656.974 500.365 670.346 498.538 683.68 496.436C688.75 495.646 694.841 495.024 699.705 493.822C700.929 493.771 704.539 493.288 705.639 492.871C703.549 492.573 697.722 492.901 695.601 493.243C671.13 494.155 647.112 496.035 622.527 494.875C604.958 494.045 587.712 491.158 570.38 488.473C558.964 486.704 547.5 485.14 536.111 483.096C530.89 482.16 525.297 481.695 520.093 480.644ZM362.178 406.547C364.875 405.588 367.062 404.644 369.931 404.453C374.736 404.671 378.405 406.117 382.554 408.504C382.252 406.743 380.028 394.726 379.438 394.043C375.034 397.347 366.62 403.977 362.178 406.547ZM355.884 409.233C346.074 415.104 340.302 431.652 337.67 442.132C335.557 450.828 334.219 459.693 333.673 468.624C333.408 472.71 333.428 477.659 333.016 481.607C353.227 480.561 372.69 479.458 393.006 478.865C393.825 473.32 395.096 468.526 396.21 463.078C393.145 461.281 387.688 458.245 384.922 456.287C383.586 457.511 382.232 458.723 380.966 460.018C365.844 451.832 344.598 432.068 355.045 413.039C355.54 412.142 356.065 411.262 356.621 410.401C357.764 409.555 359.392 408.517 360.099 407.345L359.798 407.091C357.952 407.628 357.455 408.079 355.884 409.233Z" fill="white"/>
<path d="M116.675 483.434C120.632 483.049 131.743 483.224 135.688 483.603C132.579 484.025 124.578 483.455 122.968 483.902L122.569 484.611C120.648 484.384 118.577 483.862 116.675 483.434Z" fill="white"/>
<path d="M695.601 493.243C697.722 492.901 703.549 492.573 705.639 492.871C704.539 493.288 700.929 493.771 699.705 493.822C698.856 493.192 696.784 493.288 695.601 493.243Z" fill="white"/>
<path d="M355.884 409.233C357.455 408.079 357.952 407.628 359.797 407.091L360.099 407.345C359.391 408.517 357.764 409.555 356.621 410.402L355.884 409.233Z" fill="white"/>
</svg>
