<svg width="845" height="823" viewBox="0 0 845 823" fill="none" xmlns="http://www.w3.org/2000/svg">
<path d="M420.586 351.647C499.179 350.267 564.063 412.78 565.649 491.403C567.232 570.026 504.918 635.103 426.333 636.893C347.461 638.69 282.12 576.068 280.53 497.154C278.94 418.241 341.704 353.033 420.586 351.647ZM431.004 620.598C500.829 616.223 553.848 555.979 549.348 486.13C544.845 416.28 484.534 363.347 414.724 367.977C345.093 372.594 292.347 432.746 296.837 502.415C301.326 572.087 361.355 624.964 431.004 620.598Z" fill="white"/>
<path d="M420.167 383.606C481.246 382.057 532.009 430.355 533.528 491.46C535.046 552.566 486.751 603.328 425.669 604.821C364.629 606.314 313.93 558.033 312.411 496.964C310.892 435.899 359.128 385.154 420.167 383.606ZM338.212 455.4C341.892 459.535 348.801 466.538 351.959 470.56C342.171 481.351 337.761 489.72 338.499 504.896C339.076 515.611 343.9 525.65 351.903 532.791C366.167 545.516 386.522 547.393 402.836 537.473C405.262 535.997 408.239 531.896 410.588 533.896C412.973 535.927 420.915 546.337 423.152 546.594L424.103 545.82C427.361 541.795 432.733 536.525 436.458 532.611C475.467 566.159 528.717 518.212 498.972 476.441C497.5 474.374 495.554 472.553 493.965 470.583C498.151 465.526 503.165 460.259 507.665 455.407C500.224 456.235 491.895 455.313 484.481 455.717C475.14 456.228 473.948 453.116 466.494 449.382C453.29 442.762 435.871 438.15 421.097 439.202C399.682 439.85 386.071 445.2 368.528 455.367C367.538 455.941 341.161 455.767 338.212 455.4Z" fill="white"/>
<path d="M463.249 473.044C479.019 471.972 492.69 483.852 493.835 499.623C494.98 515.393 483.169 529.124 467.408 530.343C451.548 531.565 437.717 519.655 436.565 503.784C435.41 487.91 447.378 474.126 463.249 473.044ZM466.747 516.402C474.92 515.544 480.832 508.189 479.917 500.02C479.002 491.851 471.611 485.989 463.452 486.961C455.37 487.923 449.582 495.228 450.486 503.32C451.391 511.409 458.655 517.254 466.747 516.402Z" fill="white"/>
<path d="M378.036 473.094C393.76 471.755 407.616 483.364 409.058 499.085C410.5 514.806 398.988 528.746 383.283 530.293C367.431 531.852 353.339 520.203 351.883 504.335C350.427 488.464 362.164 474.444 378.036 473.094ZM381.952 516.436C390.089 515.634 396.039 508.39 395.251 500.247C394.464 492.105 387.236 486.14 379.096 486.911C370.934 487.686 364.95 494.94 365.74 503.106C366.53 511.269 373.794 517.244 381.952 516.436Z" fill="white"/>
<path d="M421.348 452.888C430.286 451.793 445.876 455.457 454.319 458.947C452.516 460.209 450.613 460.924 448.73 461.996C433.617 470.599 428.34 477.924 423.472 493.745C423.135 494.429 423.068 494.466 422.61 495.084L422.26 494.857C422.175 494.282 422.069 493.708 421.944 493.14C419.231 480.99 411.598 471.047 401.246 464.367C398.126 462.353 394.926 460.991 391.94 459.034L391.597 458.803C402.837 454.709 409.376 453.476 421.348 452.888Z" fill="white"/>
<path d="M455.46 107.573C456.458 107.451 456.388 107.459 457.336 107.811C458.338 109.158 457.924 127.63 457.917 130.851C457.881 144.154 458.024 157.553 457.857 170.851C454.462 171.222 449.615 171.026 446.116 170.92L446.026 165.907C438.592 174.498 427.468 173.156 418.738 167.623C407.811 158.316 406.952 141.283 417.01 130.902C423.943 123.744 437.971 122.446 445.235 130.055C444.751 122.611 444.861 115.141 445.569 107.716L455.46 107.573ZM437.009 160.027C443.262 158.57 447.158 152.331 445.729 146.07C444.297 139.81 438.078 135.885 431.815 137.289C425.515 138.701 421.562 144.97 423.002 151.267C424.44 157.565 430.72 161.493 437.009 160.027Z" fill="white"/>
<path d="M329.757 125.145C344.587 123.21 354.911 134.879 354.78 149.198C354.658 162.416 344.486 172.706 331.136 171.919C327.023 171.677 322.699 170.44 319.821 167.284C319.963 170.735 319.895 174.216 319.866 177.672C319.931 181.454 319.939 185.238 319.892 189.02C315.986 189.228 310.971 189.075 306.96 189.06C306.524 179.184 306.793 167.967 306.785 157.957C306.776 147.82 306.537 136.441 307.039 126.438C310.895 126.32 314.752 126.251 318.61 126.231L318.818 131.209C322.255 127.063 324.778 126.524 329.757 125.145ZM332.861 160.062C339.179 158.639 343.132 152.343 341.67 146.031C340.208 139.719 333.889 135.805 327.589 137.308C321.347 138.798 317.477 145.05 318.926 151.305C320.375 157.56 326.6 161.471 332.861 160.062Z" fill="white"/>
<path d="M673.751 260.487C675.824 260.39 678.612 260.044 680.414 260.907C681.339 263.194 681.156 318.084 680.802 323.119C679.623 324.245 675.153 324.127 673.781 323.091C673.1 321.078 673.708 318.438 674.058 316.33C670.556 320.396 667.712 322.746 662.387 324.129C656.559 325.653 650.363 324.752 645.208 321.63C637.433 316.283 633.818 308.681 634.579 299.238C635.12 292.771 638.234 286.792 643.225 282.648C647.839 278.843 654.055 277.369 659.937 277.974C665.148 278.503 669.925 281.098 673.21 285.178C673.167 280.383 672.693 264.245 673.751 260.487ZM661.159 317.739C662.661 317.192 664.677 316.551 666.029 315.706C676.943 308.884 675.818 291.292 664.13 285.931C660.675 284.347 658.054 284.59 654.389 284.889C652.94 285.354 651.788 285.744 650.396 286.447C639.369 292.012 639.216 311.169 650.57 316.45C653.704 317.908 657.63 318.601 661.159 317.739Z" fill="white"/>
<path d="M376.429 125.163C380.969 124.865 384.62 124.726 388.834 126.954C390.314 127.736 391.755 128.908 393.312 129.189C393.411 127.593 392.996 127.421 393.774 126.524C396.721 126.219 401.977 126.209 405.007 126.223C405.348 130.946 405.166 137.648 405.163 142.459L405.115 170.957C401.988 171.174 396.217 171.082 393.165 170.792C393.137 169.227 393.483 168.112 393.21 166.56L392.791 166.463L391.812 167.443C385.594 173.769 374.488 172.861 367.436 168.529C353.116 159.731 354.279 134.933 369.268 127.394C371.767 126.137 373.722 125.756 376.429 125.163ZM384.58 159.946C390.755 158.324 394.477 152.034 392.928 145.838C391.38 139.642 385.137 135.845 378.926 137.321C374.843 138.292 371.596 141.383 370.426 145.416C369.256 149.448 370.343 153.799 373.272 156.806C376.202 159.813 380.521 161.012 384.58 159.946Z" fill="white"/>
<path d="M567.061 278.188C576.869 277.474 581.286 278.439 588.18 285.584L588.053 283.318C587.712 277.921 590.68 278.882 595.026 278.893C595.337 284.891 595.157 291.242 595.15 297.278L595.187 323.763C587.428 324.081 587.248 324.208 588.246 316.371L585.312 319.769C582.765 321.735 581.005 322.817 577.921 323.827C572.366 325.64 566.317 325.165 561.112 322.505C555.704 319.702 551.668 314.823 549.922 308.986C547.932 302.423 548.627 295.34 551.855 289.289C555.427 282.647 560.177 280.274 567.061 278.188ZM572.416 318.249C577.467 317.426 581.65 315.945 584.778 311.595C590.116 304.168 588.58 292.513 580.835 287.309C577.791 285.264 575.914 284.82 572.392 284.542C567.455 284.883 563.456 286.128 560.157 290.15C554.622 296.901 554.986 308.929 562.007 314.531C565.252 317.111 568.563 317.663 572.416 318.249Z" fill="white"/>
<path d="M328.523 201.662C337.496 200.759 342.7 202.815 348.693 209.387C348.522 207.386 348.609 204.841 348.625 202.789C350.8 202.652 353.01 202.661 355.191 202.639C355.678 207.266 355.47 214.363 355.47 219.209L355.41 247.265C352.771 247.471 351.176 247.384 348.509 247.237C348.317 245.132 348.457 242.285 348.502 240.107C347.655 241.106 346.738 242.098 345.86 243.074C343.283 245.637 339.4 247.292 335.869 248.034C330.13 249.212 324.159 248.063 319.266 244.84C314.3 241.482 310.876 236.283 309.752 230.393C307.058 216.553 314.476 204.382 328.523 201.662ZM335.319 241.493C340.231 240.018 343.55 238.139 346.186 233.522C350.777 225.477 347.804 214.113 339.442 209.833C335.896 208.019 333.535 208.154 329.792 208.303C327.055 209.008 325.584 209.554 323.201 211.27C314.112 217.817 314.675 234.636 324.89 239.848C328.111 241.466 331.756 242.042 335.319 241.493Z" fill="white"/>
<path d="M585.776 124.804C598.879 122.824 611.107 131.838 613.097 144.945C615.09 158.051 606.089 170.293 592.99 172.297C579.873 174.303 567.618 165.286 565.625 152.163C563.632 139.04 572.656 126.787 585.776 124.804ZM591.888 159.902C598.097 158.475 601.97 152.278 600.538 146.067C599.102 139.856 592.903 135.988 586.697 137.43C580.501 138.87 576.642 145.058 578.074 151.258C579.506 157.459 585.689 161.327 591.888 159.902Z" fill="white"/>
<path d="M265.274 277.699C278.334 277.758 288.876 288.392 288.827 301.457C288.778 314.523 278.157 325.077 265.098 325.038C252.024 324.999 241.461 314.359 241.509 301.28C241.559 288.201 252.201 277.641 265.274 277.699ZM268.373 317.466C277.285 315.658 283.036 306.952 281.204 298.041C279.372 289.13 270.655 283.401 261.753 285.258C252.886 287.108 247.186 295.788 249.011 304.664C250.835 313.541 259.495 319.266 268.373 317.466Z" fill="white"/>
<path d="M403.71 674.898C415.895 674.343 426.24 683.735 426.871 695.922C427.498 708.109 418.176 718.52 406 719.224C393.715 719.936 383.199 710.507 382.564 698.213C381.929 685.919 391.418 675.456 403.71 674.898ZM406.29 708.056C412.343 707.147 416.524 701.516 415.645 695.458C414.765 689.399 409.156 685.191 403.095 686.043C396.995 686.901 392.755 692.556 393.64 698.654C394.526 704.753 400.198 708.971 406.29 708.056Z" fill="white"/>
<path d="M454.435 260.4C457.176 260.331 459.917 260.35 462.654 260.457C464.524 263.434 468.646 275.228 470.222 279.342C475.807 294.149 481.489 308.919 487.264 323.652C484.273 323.817 482.23 323.79 479.226 323.669C477.079 319.363 474.442 312.039 472.973 307.422L462.978 307.453C456.759 307.476 450.539 307.461 444.32 307.407C442.554 311.026 439.646 319.529 438.167 323.512C436.385 323.724 431.781 324.048 430.262 323.303C432.419 315.123 438.798 300.068 442.017 291.607L449.301 272.517C450.376 269.708 452.869 262.679 454.435 260.4ZM447.104 300.132L459.306 300.14L470.072 300.094L458.661 269.613C457.046 272.836 454.943 278.961 453.571 282.63C451.527 288.09 448.763 294.636 447.104 300.132Z" fill="white"/>
<path d="M614.222 493.534L615.11 493.584L615.34 494.132C614.919 500.12 606.43 518.109 603.285 523.877C593.544 541.751 580.261 558.554 559.77 564.382L559.209 564.583L558.782 564.272C558.138 560.408 564.591 545.248 566.527 541.244C575.05 523.603 585.619 509.074 602.895 499.088C606.951 496.744 609.695 495.074 614.222 493.534Z" fill="white"/>
<path d="M604.571 418.244C605.289 419.4 605.349 422.96 605.422 424.523C605.98 434.7 605.449 444.906 603.836 454.969C600.812 474.921 594.566 493.357 577.664 505.822C575.477 501.092 576.515 483.117 577.003 477.47C578.882 455.62 587.302 432.615 604.571 418.244Z" fill="white"/>
<path d="M232.67 493.204C239.347 494.904 248.783 501.089 254.284 505.297C271.454 518.439 285.449 543.552 289.645 564.549C260.35 557.489 239.537 520.61 232.67 493.204Z" fill="white"/>
<path d="M243.351 418.094C248.005 420.565 257.174 434.048 259.691 438.527C263.371 445.12 266.215 452.147 268.157 459.444C271.122 470.366 273.774 494.653 270.686 505.561C268.255 504.943 262.943 499.309 261.268 497.301C243.998 476.604 241.39 443.891 243.351 418.094Z" fill="white"/>
<path d="M605.252 550.699C606.677 550.555 606.133 550.342 607.071 550.969C607.125 552.065 605.926 553.905 605.345 554.914C591.404 579.164 568.386 605.499 539.089 608.174C537.717 608.231 538.171 608.485 537.417 607.817C537.603 605.038 544.738 593.783 546.747 591.004C560.872 571.479 580.959 554.777 605.252 550.699Z" fill="white"/>
<path d="M240.709 550.418C247.499 551.183 254.166 553.738 260.477 556.17C280.165 563.758 303.171 588.389 311.012 608.118C301.93 609.16 285.249 601.478 277.943 595.91C263.86 585.183 247.666 566.68 240.709 550.418Z" fill="white"/>
<path d="M250.712 107.599C252.164 107.43 252.533 107.374 253.969 107.49L254.302 107.897C254.846 110.706 254.923 116.74 254.193 119.563C252.979 120.634 239.555 120.224 237.188 120.238C237.479 126.354 237.33 133.434 237.334 139.608L237.296 170.855C233.689 171.189 227.482 171.042 223.823 170.901C223.734 166.486 223.69 162.07 223.691 157.654C223.773 145.147 223.731 132.64 223.563 120.134C217.934 120.167 212.305 120.151 206.676 120.089C206.393 116.281 206.576 111.554 206.739 107.757C220.064 107.033 236.872 107.905 250.712 107.599Z" fill="white"/>
<path d="M496.395 676.351L499.697 676.364C499.793 679.063 500.257 684.002 499.232 686.293C497.149 687.295 480.451 686.891 476.629 686.998C476.512 690.331 475.894 693.922 475.41 697.241C477.693 695.495 479.526 694.386 482.441 693.761C486.54 692.86 490.827 693.708 494.275 696.099C507.445 705.391 501.406 727.19 485.081 728.072C478.261 728.442 474.335 727.343 468.97 723.209C466.894 721.075 463.369 715.146 464.681 712.231C466.076 711.105 473.11 711.643 475.256 711.693C478.381 717.624 482.047 719.856 488.163 715.273C489.588 712.221 490.63 707.682 488.056 705.19C483.509 700.798 478.485 703.884 475.013 706.927C471.604 707.144 467.966 706.94 464.537 706.827C465.004 698.013 465.872 685.078 467.131 676.474C476.161 676.077 487.138 676.478 496.395 676.351Z" fill="white"/>
<path d="M382.348 278.169C383.158 278.114 383.97 278.071 384.782 278.039C391.243 277.778 397.162 278.74 402.008 283.364C407.892 288.98 408.49 294.905 408.679 302.553C405.675 302.873 399.156 302.648 395.861 302.627C387.807 302.518 379.753 302.572 371.702 302.789C371.87 304.189 372.02 305.581 372.317 306.974C374.391 316.716 385.59 321.296 394.124 316.547C396.14 315.425 397.181 314.305 398.621 312.57C399.531 310.929 400.123 310.22 401.27 308.786C403.42 308.852 405.727 308.811 407.892 308.81C404.751 319.451 397.043 325.365 385.723 324.856C366.71 324.002 359.238 303.776 367.565 288.303C370.801 282.292 376.057 279.92 382.348 278.169ZM372.38 296.353L390.051 296.426C393.594 296.407 397.938 296.495 401.415 296.33C398.51 287.506 394.226 283.457 384.479 284.53C377.306 285.596 374.14 289.525 372.38 296.353Z" fill="white"/>
<path d="M424.45 201.698C434.729 200.633 443.923 204.064 447.989 214.245C449.598 218.273 449.621 221.964 449.848 226.231L413.029 226.292C413.053 227.544 413.163 228.793 413.359 230.03C414.048 233.908 416.273 237.344 419.53 239.558C425.762 243.705 435.981 242.572 439.977 235.859C440.461 234.921 441.456 233.599 442.087 232.702C444.133 232.555 445.859 232.482 447.909 232.458C449.438 233.823 448.573 235.419 447.652 236.901C441.963 246.024 434.025 249.989 423.415 248.096C405.929 244.978 400.72 224.22 409.643 210.576C413.018 205.445 418.374 202.842 424.45 201.698ZM413.368 219.945L430.68 219.995L442.507 219.988C439.523 210.564 435.537 207.467 425.592 208.056C417.944 209.121 415.773 213.38 413.368 219.945Z" fill="white"/>
<path d="M494.719 201.688C495.884 201.557 497.053 201.493 498.221 201.494C513.527 201.472 520.067 212.009 519.957 226.234L483.152 226.274C483.265 227.444 483.382 228.675 483.552 229.835C484.133 233.676 486.243 237.119 489.405 239.378C495.691 243.786 505.515 242.579 509.942 236.079C512.74 231.566 514.085 232.391 519.106 232.542C512.997 255.516 480.044 252.93 476.175 230.516C473.701 216.204 479.987 204.428 494.719 201.688ZM483.599 219.938L500.451 219.986L512.659 219.995C510.015 211.31 505.612 206.96 496.025 208.065C488.163 209.002 486.04 213.228 483.599 219.938Z" fill="white"/>
<path d="M153.663 259.487C170.078 257.428 182.825 266.729 186.315 282.776C183.753 282.862 181.092 282.735 178.521 282.654C177.836 280.757 177.203 278.967 176.26 277.179C171.156 267.499 159.398 264.185 149.403 267.94C143.918 270.041 139.487 274.231 137.081 279.592C131.46 291.96 134.692 309.853 148.236 315.694C154.06 318.198 160.638 318.291 166.53 315.955C173.392 312.929 175.993 307.958 178.622 301.438C179.51 301.408 186.233 300.829 186.022 302.194C182.629 324.094 154.436 331.823 138.269 318.223C130.946 312.256 127.969 305.26 126.77 296.137C124.515 278.986 135.427 261.322 153.663 259.487Z" fill="white"/>
<path d="M512.723 279.053C514.178 279.003 518.669 278.486 519.717 279.335C521.326 280.637 528.921 311.335 529.284 315.341C531.705 307.238 533.1 298.642 535.063 290.411C535.724 287.64 536.128 284.804 536.933 282.073C537.557 279.967 537.998 278.787 540.498 279.018C542.14 279.133 543.506 278.62 545.128 279.339C545.225 279.537 545.322 279.734 545.419 279.932C542.074 294.045 538.104 308.126 534.419 322.165C534.299 322.619 533.941 323.392 533.835 323.628C531.625 323.736 527.195 324.248 525.485 323.132C524.374 321.155 518.104 297.422 517.48 294.061L516.195 289.479C516.028 290.768 515.798 291.983 515.561 293.256C513.274 302.333 510.389 314.849 507.498 323.549C504.517 323.797 501.773 323.885 498.779 323.622L491.962 297.902C490.426 292.133 488.353 284.902 487.432 279.062C489.461 279.006 492.937 278.683 494.699 279.449C496.065 282.113 502.644 311.785 502.878 315.424C506.607 304.856 508.867 289.183 512.723 279.053Z" fill="white"/>
<path d="M541.923 125.142C549.114 123.983 558.018 126.756 560.611 134.113C561.122 135.563 562.007 137.727 561.369 139.181C559.567 140.169 552.546 139.673 550.149 139.61C545.552 131.058 540.104 137.695 541.426 139.109C547.044 145.132 561.289 142.409 562.628 154.25C563.8 164.599 556.953 170.833 547.205 172.091C542.618 172.243 536.772 171.049 533.287 168.019C529.057 164.344 528.456 161.465 527.922 156.4C530.63 156.061 537.233 156.082 540.204 156.018C540.985 157.759 541.489 159.411 543.315 160.356C544.888 161.665 549.498 161.019 550.002 158.7C551.431 152.13 537.831 152.127 533.988 148.944C531.935 147.788 530.069 145.324 529.375 142.908C526.293 132.227 533.287 127.735 541.923 125.142Z" fill="white"/>
<path d="M485.435 151.054C486.116 147.817 491.368 128.324 492.846 126.759C494.806 126.098 503.429 126.11 505.509 126.577C506.07 128.07 493.107 166.213 491.368 170.891C487.165 171.024 480.778 171.295 476.742 170.757C471.695 156.014 466.821 141.211 462.127 126.352C465.175 126.385 473.093 125.812 475.233 126.874C477.073 129.259 481.97 148.591 483.322 152.981C483.329 153.481 483.796 155.821 483.91 156.453L485.435 151.054Z" fill="white"/>
<path d="M195.591 260.374C197.992 260.347 200.394 260.382 202.793 260.478C203.321 263.848 203.076 280.859 202.47 284.553C206.672 280.456 209.824 278.14 216.056 277.917C220.388 277.761 224.363 278.77 227.563 281.903C233.882 288.091 232.646 298.012 232.62 306.256C232.573 312.034 232.583 317.813 232.649 323.591C230.26 323.871 227.651 323.776 225.227 323.752C224.784 316.433 225.008 307.387 224.961 299.867C225.157 286.755 217.706 280.269 206.368 287.205C200.822 290.598 203.138 317.02 202.94 323.692C200.576 323.854 197.743 323.772 195.333 323.761C195.016 320.059 195.13 314.945 195.124 311.165L195.11 290.44C195.105 285.016 194.792 264.633 195.591 260.374Z" fill="white"/>
<path d="M444.624 675.315C449.314 675.459 454.158 676.565 457.507 680.088C459.84 682.499 461.109 685.746 461.022 689.099C460.775 697.919 452.182 702.535 446.417 708.193C450.159 707.775 457.022 707.939 461.222 707.785C461.399 710.097 461.746 714.953 461.209 717.104C459.55 718.419 439.136 717.885 435.353 717.875C433.167 717.898 430.78 717.802 428.576 717.751C428.533 716.319 428.316 712.301 429.017 711.289C433.504 704.769 443.202 699.018 447.832 692.903C451.875 687.566 444.597 679.337 439.112 689.88C436.408 689.837 432.152 690.201 429.661 689.73C429.227 689.413 428.543 689.079 428.67 688.391C430.466 678.512 435.537 676.277 444.624 675.315Z" fill="white"/>
<path d="M363.7 675.312L364.043 675.322C368.732 675.482 373.622 676.795 376.857 680.405C379.081 682.843 380.231 686.073 380.048 689.366C379.558 697.682 371.164 702.959 365.247 708.293C369.299 707.775 375.654 707.952 380.009 707.862C380.328 711.319 380.345 714.345 380.238 717.815C372.881 718.196 362.414 717.885 354.816 717.878L347.667 717.828C347.638 716.395 347.46 712.555 348.043 711.469C350.559 706.777 365.728 695.575 367.55 691.871C368.165 690.645 368.255 689.222 367.797 687.927C367.371 686.734 366.475 685.766 365.318 685.251C364.162 684.737 362.84 684.757 361.7 685.305C359.91 686.15 359.347 687.659 358.696 689.383L358.528 689.84C356.371 689.88 348.57 690.174 348.338 689.553C346.498 684.613 352.254 677.526 357.326 676.417C361.453 675.512 361.313 675.566 363.7 675.312Z" fill="white"/>
<path d="M333.031 278.16C345.042 277.453 355.605 280.026 358.15 293.777C355.881 293.873 353.658 293.763 351.39 293.684C348.433 290.729 348.333 288.146 343.778 286.032C340.32 284.313 336.102 284.044 332.437 285.276C319.23 289.718 318.215 312.168 331.652 316.944C336.893 318.807 340.181 318.465 345.191 316.034C348.835 313.933 348.581 311.645 351.6 309.251C352.422 308.6 357.929 308.444 357.957 309.995C358.064 315.952 349.581 322.769 344.25 324.164C338.372 325.701 330.99 324.859 325.675 321.959C320.716 319.241 317.068 314.63 315.563 309.177C312.54 298.497 315.634 286.688 325.626 280.808C328.009 279.405 330.385 278.877 333.031 278.16Z" fill="white"/>
<path d="M237.321 183.961L282.31 183.99C282.615 186.823 282.62 188.4 282.561 191.269C277.047 191.256 268.732 191.643 263.565 191.339C263.815 194.721 263.622 200.48 263.619 204.056L263.596 228.811C263.69 234.963 263.674 241.115 263.548 247.266C261.263 247.447 258.167 247.348 255.81 247.336C255.343 230.683 255.892 213.921 255.59 197.256C255.554 195.241 255.55 193.271 255.68 191.259C249.37 191.302 243.06 191.281 236.75 191.198C236.623 188.723 236.359 186.27 237.321 183.961Z" fill="white"/>
<path d="M575.584 201.411C582.197 201.019 593.337 210.024 589.328 214.442C587.585 214.862 585.152 214.662 583.292 214.615C581.76 211.848 581.617 211.159 579.453 208.887C567.903 204.417 560.769 216.27 574.072 219.879C578.989 221.214 585.108 222.808 588.64 226.668C590.687 228.863 591.745 231.803 591.568 234.801C591.371 238.378 589.188 242.481 586.457 244.746C581.88 248.541 577.13 248.708 571.642 248.348C562.782 246.712 559.126 241.778 558.599 232.996C568.624 232.181 563.873 233.457 569.415 240.292C571.812 243.586 580.234 241.531 582.298 238.912C585.743 234.534 582.865 229.794 578.248 228.286C571.181 225.903 560.208 224.793 559.603 215.21C558.956 204.976 567.252 201.845 575.584 201.411Z" fill="white"/>
<path d="M706.511 277.888C712.867 277.104 723.994 285.219 721.486 290.465C720.014 291.67 716.95 291.16 714.943 291.058C713.731 288.616 713.101 287.5 711.348 285.461C707.923 284.098 703.319 283.518 700.198 286.305C699.43 286.99 697.951 290.425 698.385 291.338C701.243 297.341 711.909 296.533 717.003 300.347C722.131 304.166 722.408 305.936 723.603 311.338C720.722 320.999 714.94 325.891 704.508 324.801C695.073 323.382 690.717 319.07 690.189 309.383C700.221 308.592 695.644 309.8 700.909 316.625C704.748 320.786 716.639 317.117 715.324 310.64C713.535 301.816 701.319 304.651 695.31 299.086C690.663 294.78 689.806 288.446 693.571 283.273C696.616 279.088 701.817 278.217 706.511 277.888Z" fill="white"/>
<path d="M630.396 133.088C633.678 125.649 637.774 126.331 645.095 126.115C645.195 128.991 645.672 135.382 644.838 137.858C641.51 140.704 631.107 134.838 631.291 145.775C631.351 149.311 631.314 153.718 631.348 157.339C631.217 172.564 634.492 171.424 618.348 170.882C618.839 156.416 618.054 141.158 618.528 126.452C620.859 126.338 623.426 126.341 625.776 126.293L630.153 126.116C630.286 128.367 630.319 130.818 630.396 133.088Z" fill="white"/>
<path d="M263.54 126.303L268.003 126.068C268.002 128.517 267.846 130.658 267.669 133.102C271.542 125.827 274.829 126.277 282.407 126.231C282.808 130.369 282.676 134.567 282.552 138.715C264.816 139.121 268.948 141.886 268.941 158.977C268.971 162.935 268.972 166.892 268.943 170.85C265.494 171.196 259.591 171.068 256.101 170.948C255.963 163.235 255.924 155.522 255.984 147.809C255.983 140.701 255.846 133.474 256.226 126.384L263.54 126.303Z" fill="white"/>
<path d="M539.099 613.865C542.695 613.755 548.106 614.34 551.601 615.084C536.028 626.954 520.645 635.164 500.909 637.181C498.238 637.335 490.804 636.864 488.704 635.478C488.654 634.83 488.784 634.198 489.331 633.748C504.591 621.193 519.617 615.582 539.099 613.865Z" fill="white"/>
<path d="M302.885 614.186C313.924 612.356 331.492 617.225 341.204 622.369C345.006 624.383 358.261 631.941 359.827 635.294L359.436 635.808C357.914 636.393 356.892 636.399 355.282 636.556C337.338 640.06 310.207 626.761 296.832 614.801L302.885 614.186Z" fill="white"/>
<path d="M362.752 202.756C365.124 202.626 367.807 202.22 369.941 203.103C371.632 204.884 379.345 229.431 380.818 233.725L382.468 239.268L383.562 235.61C385.177 229.6 387.875 222.631 389.703 216.605C390.407 214.284 393.291 205.208 394.345 203.533C396.609 202.103 399.529 202.577 402.309 202.663C400.761 208.529 398.027 215.607 395.955 221.427C392.922 229.949 390.002 238.894 386.772 247.31C383.593 247.532 381.19 247.434 378.031 247.189C377.202 244.302 375.597 240.522 374.627 237.558C370.899 226.178 365.835 214.25 362.752 202.756Z" fill="white"/>
<path d="M287.859 126.245C291.584 126.42 295.883 126.163 299.643 126.015C300.335 140.109 299.508 154.673 299.828 168.816C299.846 169.617 299.71 170.342 299.232 170.992C295.547 171.126 290.513 171.104 286.897 170.83C286.759 156.844 286.721 142.688 286.992 128.701C287.018 127.346 287.029 126.993 287.859 126.245Z" fill="white"/>
<path d="M514.646 126.278L522.801 126.137C523.586 139.015 522.972 157.472 523.042 170.848C521.099 171.072 519.339 171.025 517.393 171.024C514.899 171.09 512.773 170.978 510.276 170.849C509.935 157.285 509.812 139.82 510.413 126.334L514.646 126.278Z" fill="white"/>
<path d="M459.607 184.02C461.83 183.973 464.053 183.962 466.277 183.986C466.961 189.386 466.547 205.387 466.55 211.592L466.56 233.34C466.564 236.042 466.988 245.695 465.829 247.397C463.73 247.451 461.306 247.335 459.179 247.282C458.785 234.234 459.179 220.532 459.066 207.435C459.029 203.273 458.769 187.165 459.607 184.02Z" fill="white"/>
<path d="M380.797 641.579C388.157 640.494 401.453 642.762 408.406 645.23C400.888 651.385 393.464 653.456 383.859 654.187C379.411 654.408 359.386 653.71 356.349 650.504C356.364 648.57 359.027 647.848 360.577 647.074C367.094 643.81 373.534 642.204 380.797 641.579Z" fill="white"/>
<path d="M459.59 641.643C462.414 641.363 465.258 641.339 468.082 641.576C475.013 642.104 481.733 643.881 487.855 647.204C489.171 647.919 492.175 649.108 491.955 650.761C489.378 652.501 475.971 654.194 472.492 654.258C460.241 654.769 449.882 653.072 440.15 645.39C446.76 642.508 452.442 642.044 459.59 641.643Z" fill="white"/>
<path d="M614.098 278.986C614.262 280.575 614.155 281.957 614.399 283.558C616.208 281.992 616.298 280.443 620.164 279.411C624.544 278.243 634.736 277.399 630.223 285.526C629.024 287.685 618.835 284.404 616.612 287.756C614.148 291.462 615.033 298.996 615.08 303.29C615.087 305.851 615.45 320.584 614.719 323.236C614.516 323.981 609.308 323.795 607.485 323.755C607.148 314.816 607.402 305.238 607.291 296.233C607.251 292.802 607.118 281.696 607.719 279.068L614.098 278.986Z" fill="white"/>
<path d="M288.876 207.954C293.108 201.088 298.207 202.516 305.492 202.614C305.696 205.382 305.715 206.755 305.566 209.525C301.527 210.234 294.045 208.746 291.178 211.492C289.004 213.574 289.651 222.997 289.676 226.223C289.701 233.079 289.855 240.425 289.624 247.241C287.418 247.441 284.421 247.355 282.141 247.352C282.088 246.565 281.94 243.602 281.991 243.018C282.406 238.263 280.959 204.689 282.868 202.729C285.021 202.622 286.849 202.633 289.005 202.669C289.111 204.54 288.986 206.094 288.876 207.954Z" fill="white"/>
<path d="M530.016 202.741C531.939 202.642 533.725 202.432 535.601 202.803C536.369 203.547 536.172 206.173 536.218 207.533C538.879 203.066 540.668 203.139 545.706 202.535C547.606 202.308 549.976 202.075 551.708 203.01C553.538 203.997 553.327 207.697 552.329 209.179C547.726 211.899 536.813 205.288 536.873 216.814C536.889 220.129 536.899 223.667 536.929 227.001C536.916 230.804 537.313 243.773 536.629 246.659C535.244 247.787 531.314 247.386 529.341 247.339C529.081 236.468 529.058 215.237 529.475 203.459C529.655 203.219 529.835 202.98 530.016 202.741Z" fill="white"/>
<path d="M303.422 278.904C304.034 278.851 304.364 278.974 304.995 279.086C305.141 279.254 305.287 279.423 305.433 279.592C305.743 289.59 305.587 315.701 305.627 323.712C303.832 323.809 301.726 323.772 299.9 323.78C298.964 323.788 299.222 323.786 298.286 323.528C297.474 322.083 297.844 283.579 297.981 279.072L303.422 278.904Z" fill="white"/>
<path d="M422.822 644.298C425.672 643.814 428.563 644.899 430.392 647.144C432.219 649.385 432.699 652.437 431.654 655.133C430.606 657.828 428.192 659.755 425.332 660.176C420.976 660.814 416.918 657.828 416.231 653.476C415.543 649.128 418.483 645.033 422.822 644.298Z" fill="white"/>
<path d="M291.051 104.956C293.455 104.269 296.041 104.745 298.044 106.242C300.046 107.739 301.235 110.085 301.258 112.586C301.291 116.177 298.932 119.351 295.485 120.354C291.231 121.591 286.781 119.137 285.554 114.878C284.328 110.619 286.791 106.172 291.051 104.956Z" fill="white"/>
<path d="M514.469 104.951C518.719 103.762 523.129 106.238 524.327 110.487C525.529 114.735 523.065 119.153 518.822 120.364C514.562 121.579 510.126 119.103 508.921 114.839C507.719 110.575 510.206 106.144 514.469 104.951Z" fill="white"/>
<path d="M603.259 182.903C607.709 182.5 610.606 185.185 611.017 189.482C611.735 196.982 608.667 202.521 601.125 203.455C600.695 203.181 600.575 202.98 600.217 202.596C599.269 198.881 602.815 198.914 605.125 196.519C605.636 195.988 606.236 194.426 606.53 193.706C599.152 193.183 596.752 186.658 603.259 182.903Z" fill="white"/>
<path d="M300.431 260.641C303.436 259.983 306.404 261.893 307.054 264.901C307.704 267.909 305.789 270.874 302.78 271.517C299.782 272.159 296.83 270.25 296.182 267.252C295.534 264.253 297.435 261.295 300.431 260.641Z" fill="white"/>
<path d="M380.818 233.725C382.529 234.168 382.749 234.03 383.562 235.61L382.468 239.267L380.818 233.725Z" fill="white"/>
<path d="M483.322 152.981C483.543 151.867 483.312 151.581 483.526 150.51L485.435 151.053L483.91 156.452C483.796 155.82 483.329 153.481 483.322 152.981Z" fill="white"/>
<path d="M515.561 293.256C515.798 291.983 516.028 290.768 516.195 289.479L517.48 294.061C516.622 294.545 516.976 294.496 516.081 294.519L515.561 293.256Z" fill="white"/>
</svg>
